<?xml version="1.0" standalone="no"?>
<!DOCTYPE svg PUBLIC "-//W3C//DTD SVG 20010904//EN"
 "http://www.w3.org/TR/2001/REC-SVG-20010904/DTD/svg10.dtd">
<svg version="1.0" xmlns="http://www.w3.org/2000/svg"
 width="128.000000pt" height="128.000000pt" viewBox="0 0 128.000000 128.000000"
 preserveAspectRatio="xMidYMid meet">
<metadata>
Created by potrace 1.14, written by Peter Selinger 2001-2017
</metadata>
<g transform="translate(0.000000,128.000000) scale(0.100000,-0.100000)"
fill="#000000" stroke="none">
<path d="M475 1256 c-118 -32 -199 -79 -285 -166 -123 -124 -180 -254 -185
-425 -6 -189 53 -344 179 -470 124 -124 261 -184 431 -191 184 -7 341 53 469
180 125 123 185 258 192 431 7 188 -53 341 -184 473 -96 96 -178 142 -322 179
-8 2 -60 6 -115 8 -81 3 -116 -1 -180 -19z"/>
</g>
</svg>
